# xmcd
#
# Track frame offsets:
#       150
#       10436
#       18947
#       30384
#       39390
#       53901
#       72703
#       84423
#       103525
#       114059
#       124409
#       137242
#       152167
#       162847
#       174191
#       185172
#       195556
#       204048
#
# Disc length: 2884 seconds
#
# Revision: 3
# Processed by: cddbd v1.5.2PL0 Copyright (c) Steve Scherf et al.
# Submitted via: FreeDbEdit v0.1
# Normalized: r1:TDELIM( - )
#
DISCID=e80b4212
DTITLE=Various Artist - A Country Christmas
DYEAR=2000
DGENRE=Country
TTITLE0=Gene Autrey - Sleigh Bells
TTITLE1=Gene Autrey - Frosty the Snowman
TTITLE2=Skeeter Davis - Santa Claus Is Coming to Town
TTITLE3=Donna Fargo - Rockin' Around the Christmas Tree
TTITLE4=Jeannie C Riley - Silver Bells
TTITLE5=Eddy Raven - Have Yourself a Merry Little Christmas
TTITLE6=Donna Fargo - Jingle Bells
TTITLE7=Eddy Raven - I'll Be Home for Christmas
TTITLE8=Kitty Wells - Away in a Manger
TTITLE9=Lacy J Dalton - Winter Wonderland
TTITLE10=Boxcar Willie - White Christmas
TTITLE11=Jack Greene - O' Little Town of Bethlehem
TTITLE12=Jeannie C Riley - Away in a Manger
TTITLE13=Lacy J Dalton - Here Comes Santa Claus
TTITLE14=Skeeter Davis - Rudolph the Red Nosed Reindeer
TTITLE15=Eddy Raven - Silent Night
TTITLE16=Kitty Wells - Santa's on His Way
TTITLE17=Boxcar Willie - Blue Christmas
EXTD=
EXTT0=
EXTT1=
EXTT2=
EXTT3=
EXTT4=
EXTT5=
EXTT6=
EXTT7=
EXTT8=
EXTT9=
EXTT10=
EXTT11=
EXTT12=
EXTT13=
EXTT14=
EXTT15=
EXTT16=
EXTT17=
PLAYORDER=
